<svg id="svg2" xmlns="http://www.w3.org/2000/svg" viewBox="0 0 230 300"><title>bg</title><g id="layer4" style="opacity:0.9800000190734863"><path id="rect4624" d="M50,5A25,25,0,0,0,25,30V140H10v30H25V280a25,25,0,0,0,25,25H200a25,25,0,0,0,25-25V170h15V140H225V30A25,25,0,0,0,200,5Z" transform="translate(-10 -5)" style="fill:#babdb6;fill-rule:evenodd"/></g><g id="layer5"><path id="path4815" d="M125,30A75,75,0,0,0,61.56,145H10v20H61.56a75,75,0,1,0,126.88,0H240V145H188.44A75,75,0,0,0,125,30Z" transform="translate(-10 -5)" style="fill:#e2e2e2;fill-rule:evenodd"/><path id="path5252" d="M125,30l.09,175,74.91.16V205a74.6,74.6,0,0,0-11.56-40H240V145H188.44A75,75,0,0,0,125,30Z" transform="translate(-10 -5)" style="fill:#e2e2e2;fill-rule:evenodd"/><path id="path4888" d="M125,30A75,75,0,0,0,61.56,145H10v20H61.56A74.6,74.6,0,0,0,50,205v.16l74.91-.16Z" transform="translate(-10 -5)" style="fill:#e2e2e2;fill-rule:evenodd"/></g></svg>