<svg id="Layer_1" data-name="Layer 1" xmlns="http://www.w3.org/2000/svg" viewBox="0 0 150 75"><title>Artboard 1</title><g id="layer3"><path d="M39.64,2.15A1,1,0,0,0,39.5,2q-.15-.12-.48-.33c-.22-.13-.5-.28-.84-.44A12.35,12.35,0,0,0,36.94.76,15.15,15.15,0,0,0,35.29.34a18.11,18.11,0,0,0-2-.28,18.82,18.82,0,0,0-2.4,0,22.58,22.58,0,0,0-2.71.27,25.16,25.16,0,0,0-3,.65A28.8,28.8,0,0,0,22,2,32.09,32.09,0,0,0,18.8,3.61a33.3,33.3,0,0,0-3.24,2.08,32.48,32.48,0,0,0-3.15,2.59,34.78,34.78,0,0,0-3,3.08,40.2,40.2,0,0,0-2.68,3.55,40.89,40.89,0,0,0-2.33,4,39.9,39.9,0,0,0-1.89,4.33,41.48,41.48,0,0,0-1.4,4.6,42.63,42.63,0,0,0-.85,4.8,41.37,41.37,0,0,0,0,9.78,42.63,42.63,0,0,0,.85,4.8,41.48,41.48,0,0,0,1.4,4.6,39.9,39.9,0,0,0,1.89,4.33,40.89,40.89,0,0,0,2.33,4,40.2,40.2,0,0,0,2.68,3.55,34.78,34.78,0,0,0,3,3.08,32.48,32.48,0,0,0,3.15,2.59,33.3,33.3,0,0,0,3.24,2.08A32.09,32.09,0,0,0,22,73a28.8,28.8,0,0,0,3.15,1.09,25.16,25.16,0,0,0,3,.65,22.58,22.58,0,0,0,2.71.27,18.82,18.82,0,0,0,2.4,0,18.11,18.11,0,0,0,2-.28,15.15,15.15,0,0,0,1.65-.42,12.35,12.35,0,0,0,1.24-.49,8.8,8.8,0,0,0,.84-.44q.33-.21.48-.33l.14-.12.24-.22c.16-.14.41-.35.74-.61s.77-.56,1.29-.91S43,70.38,43.75,70s1.51-.85,2.4-1.29,1.88-.89,3-1.33,2.22-.88,3.45-1.29,2.54-.82,3.91-1.19,2.8-.7,4.28-1,3-.55,4.58-.76,3.17-.36,4.79-.47,3.25-.16,4.89-.16,3.27,0,4.89.16,3.22.26,4.79.47,3.1.46,4.58.76,2.92.63,4.28,1,2.68.77,3.91,1.19,2.38.85,3.45,1.29,2,.89,2.95,1.33,1.69.88,2.4,1.29,1.32.79,1.84,1.14,1,.66,1.29.91.58.47.74.61l.24.21a1,1,0,0,0,.14.13q.15.12.48.33a8.58,8.58,0,0,0,.84.45,12.51,12.51,0,0,0,1.24.48,15.15,15.15,0,0,0,1.65.42,18.11,18.11,0,0,0,2,.28,18.82,18.82,0,0,0,2.4,0,22.58,22.58,0,0,0,2.71-.27,25.16,25.16,0,0,0,3-.65A28.8,28.8,0,0,0,128,73a32.09,32.09,0,0,0,3.24-1.58,33.3,33.3,0,0,0,3.24-2.08,33.89,33.89,0,0,0,3.15-2.58,36.35,36.35,0,0,0,3-3.09,40.2,40.2,0,0,0,2.68-3.55,40.89,40.89,0,0,0,2.33-4,39.9,39.9,0,0,0,1.89-4.33,41.48,41.48,0,0,0,1.4-4.6,42.63,42.63,0,0,0,.85-4.8,41.37,41.37,0,0,0,0-9.78,42.63,42.63,0,0,0-.85-4.8,41.48,41.48,0,0,0-1.4-4.6,39.9,39.9,0,0,0-1.89-4.33,40.89,40.89,0,0,0-2.33-4,40.2,40.2,0,0,0-2.68-3.55,34.78,34.78,0,0,0-3-3.08,32.48,32.48,0,0,0-3.15-2.59,33.3,33.3,0,0,0-3.24-2.08A32.09,32.09,0,0,0,128,2,28.8,28.8,0,0,0,124.81.94a25.16,25.16,0,0,0-3-.65A22.58,22.58,0,0,0,119.14,0a18.82,18.82,0,0,0-2.4,0,18.11,18.11,0,0,0-2,.28,15.15,15.15,0,0,0-1.65.42,12.35,12.35,0,0,0-1.24.49,7.72,7.72,0,0,0-.84.44q-.33.21-.48.33l-.15.12a2.69,2.69,0,0,1-.23.22c-.16.14-.41.35-.74.61s-.77.56-1.29.91S107,4.62,106.25,5s-1.51.85-2.41,1.29S102,7.2,100.9,7.64s-2.22.88-3.45,1.29-2.54.82-3.91,1.19-2.8.7-4.28,1-3,.55-4.58.76-3.17.36-4.79.47-3.25.16-4.89.16-3.27-.05-4.89-.16-3.22-.26-4.79-.47-3.1-.46-4.58-.76-2.92-.63-4.29-1-2.67-.77-3.9-1.19-2.38-.85-3.45-1.29-2.05-.89-3-1.33S44.46,5.43,43.75,5s-1.32-.79-1.84-1.14S41,3.22,40.62,3s-.58-.47-.74-.61l-.24-.21Z" style="fill:#555753;fill-rule:evenodd"/><path d="M77.55,17.58A20,20,0,1,1,55.16,34.87,20,20,0,0,1,77.55,17.58Z" style="fill:#888a85;fill-rule:evenodd"/><path d="M75.64,32.46A5,5,0,1,1,70,36.78,5,5,0,0,1,75.64,32.46Z" style="fill-rule:evenodd"/><path d="M70.28,24.15a14.08,14.08,0,1,1-3.82,24.46" style="fill:none;stroke:#fff;stroke-width:1.9999998807907104px"/></g></svg>